<svg xmlns="http://www.w3.org/2000/svg" fill="#fff" viewBox="0 0 24 24">
  <path d="M11 18h2v2h-2v-2zm1-16C6.48 2 2 6.48 2 12s4.48 
    10 10 10 10-4.48 10-10S17.52 2 12 
    2zm0 18c-4.41 0-8-3.59-8-8s3.59-8 
    8-8 8 3.59 8 8-3.59 8-8 8zm-.88-5.75h1.75v1.75h-1.75v-1.75zm2.41-5.03c-.36.34-.56.75-.56 
    1.28h-1.75c0-.76.26-1.38.76-1.86.3-.3.64-.54 
    1.02-.73.38-.19.57-.4.57-.68 
    0-.56-.38-.84-.94-.84-.32 0-.59.1-.78.3-.2.2-.31.45-.31.76H9.24c0-.66.26-1.23.76-1.69.5-.46 
    1.16-.69 1.98-.69s1.49.22 
    1.96.65c.47.43.71 1 .71 1.7 
    0 .51-.18.95-.55 1.32z"/>
</svg>
